<?xml version="1.0" encoding="utf-8"?>
<!-- Generator: Adobe Illustrator 24.2.3, SVG Export Plug-In . SVG Version: 6.00 Build 0)  -->
<svg version="1.1" id="图层_1" xmlns="http://www.w3.org/2000/svg" xmlns:xlink="http://www.w3.org/1999/xlink" x="0px" y="0px"
	 viewBox="0 0 113.1 113.1" style="enable-background:new 0 0 113.1 113.1;" xml:space="preserve">
<style type="text/css">
	.st0{fill:#3E3A39;}
	.st1{fill:#EEEEEF;}
	.st2{fill:#0DAC67;}
</style>
<g>
	<circle class="st0" cx="56.55" cy="56.55" r="56.55"/>
	<g>
		<path class="st1" d="M39.67,28.67l-9.83,55.76c9.32-1.45,18.5-13.38,21.06-27.88C53.45,42.05,48.48,30.12,39.67,28.67z"/>
		<path class="st1" d="M75.36,58.46c-14.75,0-28.88,11.46-32.84,26.11h9.87v-0.01c13.27-0.2,26.04-11.19,29.8-25.22
			C80.05,58.77,77.77,58.46,75.36,58.46z"/>
		<path class="st2" d="M52.61,28.52c-0.32,13.83,9.56,24.41,23.73,24.41c2.34,0,4.66-0.29,6.92-0.84
			c0.38-13.23-8.32-23.37-20.99-23.57v-0.01L52.61,28.52L52.61,28.52z"/>
	</g>
</g>
</svg>
