<?xml version="1.0" encoding="utf-8"?>
<!-- Generator: Adobe Illustrator 24.2.3, SVG Export Plug-In . SVG Version: 6.00 Build 0)  -->
<svg version="1.1" id="图层_1" xmlns="http://www.w3.org/2000/svg" xmlns:xlink="http://www.w3.org/1999/xlink" x="0px" y="0px"
	 viewBox="0 0 101.26 98.74" style="enable-background:new 0 0 101.26 98.74;" xml:space="preserve">
<style type="text/css">
	.st0{fill:#595757;}
	.st1{fill:#0DAC67;}
</style>
<g>
	<path class="st0" d="M18.63,0.26L0,98.48c17.67-2.55,35.07-23.56,39.91-49.11S35.33,2.81,18.63,0.26z"/>
	<path class="st0" d="M86.27,52.74c-27.95,0-54.75,20.19-62.25,46h18.7v-0.02c25.16-0.36,49.36-19.71,56.48-44.43
		C95.16,53.28,90.84,52.74,86.27,52.74z"/>
	<path class="st1" d="M43.15,0c-0.61,24.36,18.11,43,44.97,43c4.43,0,8.82-0.52,13.12-1.47c0.73-23.31-15.76-41.17-39.79-41.51V0
		H43.15z"/>
</g>
</svg>
