<?xml version="1.0" encoding="utf-8"?>
<!-- Generator: Adobe Illustrator 24.2.3, SVG Export Plug-In . SVG Version: 6.00 Build 0)  -->
<svg version="1.1" id="图层_1" xmlns="http://www.w3.org/2000/svg" xmlns:xlink="http://www.w3.org/1999/xlink" x="0px" y="0px"
	 viewBox="0 0 834.46 535.58" style="enable-background:new 0 0 834.46 535.58;" xml:space="preserve">
<style type="text/css">
	.st0{fill:#595757;}
	.st1{fill:#0DAC67;}
	.st2{fill:#0DAC67;stroke:#0DAC67;stroke-miterlimit:10;}
</style>
<g>
	<g>
		<path class="st0" d="M160.04,196.82l-24.67,130.01c23.39-3.38,46.42-31.19,52.83-65C194.62,228.01,182.15,200.2,160.04,196.82z"/>
		<path class="st0" d="M249.58,266.28c-37,0-72.47,26.72-82.41,60.89h24.76l0-0.02c33.3-0.47,65.33-26.08,74.76-58.81
			C261.34,267,255.62,266.28,249.58,266.28z"/>
		<path class="st1" d="M192.49,196.47c-0.81,32.25,23.97,56.92,59.53,56.92c5.86,0,11.68-0.68,17.37-1.95
			c0.97-30.85-20.87-54.5-52.67-54.95l0-0.02H192.49z"/>
	</g>
	<path class="st0" d="M288.47,321.21l13.48-46.69h16.75l-9.03,31.13h33.49c11.17,0,18.27-5.19,21.33-15.56l4.45-15.57
		c2.96-10.37-1.13-15.56-12.3-15.56H306.4l21.2-15.56h33.49c22.33,0,30.53,10.38,24.6,31.13l-4.45,15.57
		c-6.02,20.75-20.19,31.13-42.52,31.13H288.47z"/>
	<path class="st0" d="M474.44,274.51c2.96-10.37-1.13-15.56-12.3-15.56H445.4c-11.17,0-18.23,5.19-21.2,15.56l-13.47,46.69h-16.75
		l13.48-46.69c5.93-20.75,20.06-31.13,42.39-31.13h16.75c22.33,0,30.53,10.38,24.6,31.13l-13.48,46.69h-16.75L474.44,274.51z"/>
	<path class="st0" d="M499.49,321.21l21.2-15.56h33.5c11.17,0,17.49-2.59,18.97-7.78c1.57-5.19-3.23-7.78-14.39-7.78h-16.75
		c-22.33,0-31.27-7.78-26.82-23.35s17.84-23.35,40.17-23.35h50.24l-21.2,15.56h-33.5c-11.17,0-17.49,2.6-18.97,7.78
		c-1.48,5.19,3.36,7.78,14.52,7.78h16.75c22.33,0,31.22,7.78,26.69,23.35c-4.45,15.56-17.84,23.35-40.17,23.35H499.49z"/>
	<g>
		<path class="st2" d="M689.37,288.05c0.63,2.86,0.56,6.03-0.32,9.37c-1.1,4.15-3.32,8.03-6.28,11.37
			c-5.56,6.28-13.74,10.61-22.01,11.09c-0.51,0.03-1.03,0.05-1.54,0.05s-1.02-0.01-1.52-0.05h-44.64l2.94-11.09h48.96
			c5.8-1.2,11.12-5.84,12.59-11.37c1.02-3.84-0.05-7.25-2.53-9.37h-46.89l2.94-11.1h41.03c1.56-0.17,3.1-0.61,4.57-1.26
			c0.06-0.03,0.12-0.06,0.19-0.08c4.28-1.96,7.83-5.74,8.98-10.07c1.56-5.87-1.83-10.72-7.67-11.42H630.5l2.94-11.1h46.17
			c8.74,0,15.2,4.43,17.6,11.05c0.01,0.02,0.01,0.03,0.02,0.05c1.21,3.35,1.37,7.25,0.26,11.42c-1.11,4.17-3.34,8.07-6.32,11.41
			c-1.48,1.66-3.13,3.18-4.93,4.53C687.76,283.37,688.82,285.59,689.37,288.05z"/>
	</g>
</g>
</svg>
