<?xml version="1.0" encoding="utf-8"?>
<!-- Generator: Adobe Illustrator 24.2.3, SVG Export Plug-In . SVG Version: 6.00 Build 0)  -->
<svg version="1.1" id="图层_1" xmlns="http://www.w3.org/2000/svg" xmlns:xlink="http://www.w3.org/1999/xlink" x="0px" y="0px"
	 viewBox="0 0 640 480" style="enable-background:new 0 0 640 480;" xml:space="preserve">
<style type="text/css">
	.st0{fill:#3E3A39;}
	.st1{fill:#EEEEEF;}
	.st2{fill:#0DAC67;}
</style>
<g>
	<circle class="st0" cx="319.92" cy="239.85" r="56.55"/>
	<g>
		<path class="st1" d="M303.04,211.97l-9.83,55.76c9.32-1.45,18.5-13.38,21.06-27.88C316.82,225.35,311.85,213.42,303.04,211.97z"/>
		<path class="st1" d="M338.73,241.76c-14.75,0-28.88,11.46-32.84,26.11h9.87l0-0.01c13.27-0.2,26.04-11.19,29.8-25.22
			C343.42,242.07,341.14,241.76,338.73,241.76z"/>
		<path class="st2" d="M315.98,211.82c-0.32,13.83,9.56,24.41,23.73,24.41c2.34,0,4.66-0.29,6.92-0.84
			c0.38-13.23-8.32-23.37-20.99-23.57l0-0.01H315.98z"/>
	</g>
</g>
</svg>
