<?xml version="1.0" encoding="utf-8"?>
<!-- Generator: Adobe Illustrator 24.2.3, SVG Export Plug-In . SVG Version: 6.00 Build 0)  -->
<svg version="1.1" id="图层_1" xmlns="http://www.w3.org/2000/svg" xmlns:xlink="http://www.w3.org/1999/xlink" x="0px" y="0px"
	 viewBox="0 0 134.06 97.85" style="enable-background:new 0 0 134.06 97.85;" xml:space="preserve">
<style type="text/css">
	.st0{fill:#595757;}
	.st1{fill:#0DAC67;}
	.st2{fill:#0DAC67;stroke:#0DAC67;stroke-miterlimit:10;}
</style>
<g>
	<g>
		<path class="st0" d="M52.24,0.16L41.4,57.27c10.28-1.49,20.39-13.7,23.21-28.55C67.43,13.86,61.95,1.64,52.24,0.16z"/>
		<path class="st0" d="M91.57,30.67c-16.25,0-31.83,11.74-36.2,26.75h10.87v-0.01c14.63-0.21,28.7-11.46,32.84-25.83
			C96.74,30.99,94.22,30.67,91.57,30.67z"/>
		<path class="st1" d="M66.5,0.01c-0.35,14.16,10.53,25,26.15,25c2.57,0,5.13-0.3,7.63-0.86C100.7,10.6,91.11,0.21,77.14,0.01V0
			L66.5,0.01L66.5,0.01z"/>
	</g>
	<path class="st0" d="M0,97.75l4.39-15.22h5.46L6.91,92.67h10.92c3.64,0,5.96-1.69,6.95-5.07l1.45-5.07
		c0.97-3.38-0.37-5.07-4.01-5.07H5.85l6.91-5.07h10.92c7.28,0,9.95,3.38,8.02,10.14l-1.45,5.07c-1.96,6.76-6.58,10.14-13.86,10.14
		L0,97.75L0,97.75z"/>
	<path class="st0" d="M60.6,82.54c0.97-3.38-0.37-5.07-4.01-5.07h-5.46c-3.64,0-5.94,1.69-6.91,5.07l-4.39,15.22h-5.46l4.39-15.22
		c1.93-6.76,6.54-10.14,13.82-10.14h5.46c7.28,0,9.95,3.38,8.02,10.14l-4.39,15.22h-5.46L60.6,82.54z"/>
	<path class="st0" d="M68.76,97.75l6.91-5.07h10.91c3.64,0,5.7-0.85,6.18-2.54c0.51-1.69-1.05-2.54-4.69-2.54h-5.46
		c-7.28,0-10.19-2.54-8.74-7.61c1.45-5.07,5.81-7.61,13.09-7.61h16.37l-6.91,5.07H85.5c-3.64,0-5.7,0.85-6.18,2.54
		c-0.48,1.69,1.09,2.54,4.73,2.54h5.46c7.28,0,10.18,2.54,8.7,7.61c-1.45,5.07-5.81,7.61-13.09,7.61H68.76z"/>
	<g>
		<path class="st2" d="M130.65,86.94c0.21,0.93,0.18,1.96-0.11,3.06c-0.36,1.35-1.08,2.62-2.05,3.71c-1.81,2.05-4.48,3.46-7.17,3.62
			c-0.17,0.01-0.34,0.02-0.5,0.02s-0.33,0-0.5-0.02h-14.55l0.96-3.62h15.96c1.89-0.39,3.63-1.9,4.1-3.71
			c0.33-1.25-0.02-2.36-0.82-3.06h-15.28l0.96-3.62h13.38c0.51-0.06,1.01-0.2,1.49-0.41c0.02-0.01,0.04-0.02,0.06-0.03
			c1.4-0.64,2.55-1.87,2.93-3.28c0.51-1.91-0.6-3.5-2.5-3.72h-15.53l0.96-3.62h15.05c2.85,0,4.95,1.45,5.74,3.6c0,0,0,0.01,0,0.02
			c0.39,1.09,0.45,2.36,0.09,3.72c-0.36,1.36-1.09,2.63-2.06,3.72c-0.48,0.54-1.02,1.04-1.61,1.48
			C130.13,85.42,130.47,86.14,130.65,86.94z"/>
	</g>
</g>
</svg>
