<?xml version="1.0" encoding="utf-8"?>
<!-- Generator: Adobe Illustrator 24.2.3, SVG Export Plug-In . SVG Version: 6.00 Build 0)  -->
<svg version="1.1" id="图层_1" xmlns="http://www.w3.org/2000/svg" xmlns:xlink="http://www.w3.org/1999/xlink" x="0px" y="0px"
	 viewBox="0 0 640 480" style="enable-background:new 0 0 640 480;" xml:space="preserve">
<style type="text/css">
	.st0{fill:#595757;}
	.st1{fill:#0DAC67;}
</style>
<g>
	<path class="st0" d="M287.57,190.74l-18.63,98.22c17.67-2.55,35.07-23.56,39.91-49.11C313.69,214.3,304.27,193.29,287.57,190.74z"
		/>
	<path class="st0" d="M355.21,243.22c-27.95,0-54.75,20.19-62.25,46h18.7l0-0.02c25.16-0.36,49.36-19.71,56.48-44.43
		C364.1,243.76,359.78,243.22,355.21,243.22z"/>
	<path class="st1" d="M312.09,190.48c-0.61,24.36,18.11,43,44.97,43c4.43,0,8.82-0.52,13.12-1.47
		c0.73-23.31-15.76-41.17-39.79-41.51l0-0.02H312.09z"/>
</g>
</svg>
